HIERARCHY
ROOT root
{
	OFFSET	0	13.1	24.9
	CHANNELS 6  Xposition Yposition Zposition Xrotation Yrotation Zrotation
	JOINT spine_1
	{
		OFFSET	0	9.99999	0
		CHANNELS 3  Xrotation Yrotation Zrotation
		JOINT spine_2
		{
			OFFSET	0	112	-10
			CHANNELS 3  Xrotation Yrotation Zrotation
			JOINT spine_3
			{
				OFFSET	0	206.5	19.3
				CHANNELS 3  Xrotation Yrotation Zrotation
				JOINT spine_4
				{
					OFFSET	0	110.4	14.6
					CHANNELS 3  Xrotation Yrotation Zrotation
					JOINT neck_1
					{
						OFFSET	0	71.8	-50.3
						CHANNELS 3  Xrotation Yrotation Zrotation
						JOINT neck_2
						{
							OFFSET	0	86.2	-25.8
							CHANNELS 3  Xrotation Yrotation Zrotation
							JOINT head_ee
							{
								OFFSET	0	179.8	-8.7
								CHANNELS 3  Xrotation Yrotation Zrotation
								End Site
								{
									OFFSET	1	0	0
								}
							}
						}
					}
					JOINT left_clavicle
					{
						OFFSET	-43.2	22.4	-70.8
						CHANNELS 3  Xrotation Yrotation Zrotation
						JOINT left_shoulder
						{
							OFFSET	-93.9	-5.79999	48.7
							CHANNELS 3  Xrotation Yrotation Zrotation
							JOINT left_elbow
							{
								OFFSET	-291.4	-30.8	15.2
								CHANNELS 3  Xrotation Yrotation Zrotation
								JOINT left_lowarm_twist
								{
									OFFSET	-110.7	-3.89999	13.6
									CHANNELS 3  Xrotation Yrotation Zrotation
									JOINT left_hand
									{
										OFFSET	-110.7	-3.89999	13.6
										CHANNELS 3  Xrotation Yrotation Zrotation
										JOINT left_ee
										{
											OFFSET	-80.8	-5.10001	12.1
											CHANNELS 3  Xrotation Yrotation Zrotation
											End Site
											{
												OFFSET	1	0	0
											}
										}
									}
								}
							}
						}
					}
					JOINT right_clavicle
					{
						OFFSET	43.2	22.4	-70.8
						CHANNELS 3  Xrotation Yrotation Zrotation
						JOINT right_shoulder
						{
							OFFSET	93.9	-5.79999	48.7
							CHANNELS 3  Xrotation Yrotation Zrotation
							JOINT right_elbow
							{
								OFFSET	291.4	-30.8	15.2
								CHANNELS 3  Xrotation Yrotation Zrotation
								JOINT right_lowarm_twist
								{
									OFFSET	110.7	-3.89999	13.6
									CHANNELS 3  Xrotation Yrotation Zrotation
									JOINT right_hand
									{
										OFFSET	110.7	-3.89999	13.6
										CHANNELS 3  Xrotation Yrotation Zrotation
										JOINT right_ee
										{
											OFFSET	80.8	-5.10001	12.1
											CHANNELS 3  Xrotation Yrotation Zrotation
											End Site
											{
												OFFSET	1	0	0
											}
										}
									}
								}
							}
						}
					}
				}
			}
		}
	}
	JOINT left_hip
	{
		OFFSET	-82.8	-127.5	0.300001
		CHANNELS 3  Xrotation Yrotation Zrotation
		JOINT left_knee
		{
			OFFSET	-28.2	-396.7	2.2
			CHANNELS 3  Xrotation Yrotation Zrotation
			JOINT left_ankle
			{
				OFFSET	-11.7	-411.3	35.4
				CHANNELS 3  Xrotation Yrotation Zrotation
				JOINT left_toes
				{
					OFFSET	0	-60	-88.6
					CHANNELS 3  Xrotation Yrotation Zrotation
					JOINT left_foot_ee
					{
						OFFSET	-22.5	-16.5	-42.2
						CHANNELS 3  Xrotation Yrotation Zrotation
						End Site
						{
							OFFSET	1	0	0
						}
					}
				}
			}
		}
	}
	JOINT right_hip
	{
		OFFSET	82.8	-127.5	0.300001
		CHANNELS 3  Xrotation Yrotation Zrotation
		JOINT right_knee
		{
			OFFSET	28.2	-396.7	2.2
			CHANNELS 3  Xrotation Yrotation Zrotation
			JOINT right_ankle
			{
				OFFSET	11.7	-411.3	35.4
				CHANNELS 3  Xrotation Yrotation Zrotation
				JOINT right_toes
				{
					OFFSET	0	-60	-88.6
					CHANNELS 3  Xrotation Yrotation Zrotation
					JOINT right_foot_ee
					{
						OFFSET	22.5	-16.5	-42.2
						CHANNELS 3  Xrotation Yrotation Zrotation
						End Site
						{
							OFFSET	1	0	0
						}
					}
				}
			}
		}
	}
}
MOTION
Frames: 5
Frame Time: 0.02
2337.1 692.363 -1564.15 -10.1788 75.9802 8.25383 2.85771 0.439626 0.0794493 2.85761 0.43368 0.107263 2.85846 0.410726 0.17575 2.85868 0.433328 0.108676 -13.8378 19.391 7.39226 -14.5523 32.5648 13.3647 -0.0 0.0 -0.0 -1.3655 24.8976 1.06059 -29.5889 -3.74357 73.6079 0.554059 -15.3479 0.0746557 -57.8358 -5.0149 5.02872 -0.998905 17.1767 0.892642 -0.0 0.0 -0.0 11.9356 11.1637 -24.1285 3.47275 8.95263 -73.0026 1.16784 30.0489 -0.313466 -49.4683 4.00961 -4.65481 -3.74645 -14.9767 17.3859 0.0 0.0 0.0 13.8694 3.33026 -5.29491 -46.8831 -0.961672 6.93356 35.6795 -13.5579 -4.72054 -29.9021 0.0 0.0 -0.0 0.0 -0.0 4.02514 -1.78494 -4.88587 -1.97327 -0.0762041 -0.293226 23.6532 4.83423 3.23919 8.87183 -0.0 -0.0 0.0 0.0 0.0 
2326.63 693.767 -1563.08 -16.1215 77.3993 14.1097 3.11137 0.342715 0.107005 3.11131 0.335212 0.128596 3.11209 0.310905 0.179561 3.1122 0.335361 0.128206 -13.3125 19.3262 8.13819 -13.8822 31.8683 13.839 -0.0 0.0 -0.0 -1.57614 25.153 0.82095 -30.6485 -3.57285 73.7369 0.64638 -17.755 0.100962 -58.2313 -5.06364 5.04272 -1.16478 16.9815 -0.203096 -0.0 0.0 -0.0 12.0742 11.3316 -24.4418 4.62718 9.23107 -72.3242 1.18549 30.4227 -0.322353 -49.427 4.00479 -4.6526 -3.82903 -15.0978 17.8538 0.0 0.0 0.0 15.1313 1.81611 -4.62472 -42.1726 -0.610744 6.29972 36.9697 -14.3898 -4.86925 -29.6283 0.0 0.0 -0.0 0.0 -0.0 2.78313 -2.15935 -5.09026 2.26525 0.0998889 0.33322 22.0519 4.36632 3.04053 6.84444 -0.0 -0.0 0.0 0.0 0.0 
2317.24 692.469 -1562.87 -15.0923 79.7113 12.8096 2.8022 0.167471 0.298002 2.80223 0.148169 0.308055 2.80303 0.0962705 0.328 2.80291 0.146864 0.308679 -12.9093 17.8159 6.80927 -13.3887 29.7008 11.9682 -0.0 0.0 -0.0 -1.56192 24.1919 0.690773 -31.2284 -3.40655 74.4379 0.765844 -20.7755 0.140392 -57.7543 -5.00486 5.02579 -1.38785 17.108 -1.5049 -0.0 0.0 -0.0 12.0314 11.3522 -24.3445 5.53009 9.53883 -72.0626 1.36457 34.0556 -0.417931 -49.6893 4.03542 -4.66655 -4.25105 -15.2748 20.5335 0.0 0.0 0.0 18.2328 2.38247 -7.85982 -27.6916 0.125537 4.20657 32.7143 -12.3944 -4.3901 -29.3679 0.0 0.0 -0.0 0.0 -0.0 0.895127 -0.149647 -4.23742 2.48871 0.110456 0.365876 23.1548 3.51924 3.16532 5.86707 -0.0 -0.0 0.0 0.0 0.0 
2307.95 690.405 -1565.75 -20.4952 81.2373 18.8424 2.60945 0.0905717 0.283303 2.60949 0.0723609 0.288492 2.60985 0.0236359 0.296488 2.60973 0.0701639 0.289035 -13.2079 16.8967 6.84548 -13.6356 27.9779 11.7682 -0.0 0.0 -0.0 -1.75773 23.9125 0.381906 -31.5041 -3.04983 74.2346 0.908175 -24.2219 0.194881 -57.7151 -5.00003 5.02438 -1.42429 16.6849 -1.92024 -0.0 0.0 -0.0 12.1075 12.0614 -24.5109 6.52633 9.18513 -71.5569 1.47929 36.2316 -0.483983 -49.8705 4.05662 -4.67611 -4.39961 -15.3906 21.4532 0.0 0.0 0.0 19.1723 4.15345 -10.0291 -20.1813 0.29344 3.06708 28.3268 -15.2251 -3.98322 -29.021 0.0 0.0 -0.0 0.0 -0.0 0.423267 -0.943298 -5.28212 3.50391 0.160069 0.513717 22.8657 1.68597 3.11398 5.35845 -0.0 -0.0 0.0 0.0 0.0 
2295.7 688.641 -1568.01 -23.2468 81.7244 22.4221 2.65462 0.20921 0.206084 2.65463 0.195672 0.218979 2.65538 0.156947 0.248208 2.65535 0.194177 0.220306 -13.4384 16.2288 6.96334 -13.8231 26.6714 11.7071 -0.0 0.0 -0.0 -1.87002 23.9082 0.22887 -32.1023 -2.9975 74.3774 0.97938 -25.8801 0.225034 -57.6851 -4.99635 5.0233 -1.55105 16.1867 -2.92652 -0.0 0.0 -0.0 12.094 12.0684 -24.4801 7.13191 9.36389 -70.8693 1.65064 39.269 -0.588921 -49.9795 4.06939 -4.68183 -4.62969 -15.2463 23.1036 0.0 0.0 0.0 19.9414 4.95812 -10.7925 -13.8012 0.317973 2.089 25.3729 -15.4532 -3.63918 -28.5481 0.0 0.0 -0.0 0.0 -0.0 -0.546709 -0.490386 -6.42615 3.94765 0.182578 0.578063 23.6068 0.525933 3.1935 4.94888 -0.0 -0.0 0.0 0.0 0.0 
